<svg xmlns="http://www.w3.org/2000/svg" width="28" height="44" viewBox="0 0 28.676 44.606">
  <path
    fill="black"
    d="M20.974,37.263v1.7a2.7,2.7,0,0,1-2.288,2.671l-.419,1.545a1.923,1.923,0,0,1-1.857,1.425H12.254a1.923,1.923,0,0,1-1.857-1.425l-.407-1.545a2.71,2.71,0,0,1-2.3-2.683V37.249a1.636,1.636,0,0,1,1.641-1.641h10A1.654,1.654,0,0,1,20.974,37.263Zm7.7-22.926A14.269,14.269,0,0,1,24.65,24.291a13.151,13.151,0,0,0-3.522,7.139,2.371,2.371,0,0,1-2.348,2h-8.9a2.348,2.348,0,0,1-2.336-1.988A13.3,13.3,0,0,0,4,24.279,14.339,14.339,0,1,1,28.675,14.337ZM15.955,5.649a1.618,1.618,0,0,0-1.617-1.617A10.359,10.359,0,0,0,3.989,14.385a1.617,1.617,0,1,0,3.234,0,7.123,7.123,0,0,1,7.115-7.115A1.61,1.61,0,0,0,15.955,5.649Z"
  />
</svg>