<svg xmlns="http://www.w3.org/2000/svg" width="21" height="20" viewBox="0 0 20.722 19.297">
  <g fill="black">
    <path d="M10.953,8.271a.578.578,0,0,0,0,.82,2.412,2.412,0,0,1,0,3.408L6.018,17.433a2.412,2.412,0,0,1-3.408,0l-.743-.743a2.412,2.412,0,0,1,0-3.408L6.8,8.348a.58.58,0,1,0-.82-.82L1.044,12.464a3.565,3.565,0,0,0,0,5.047l.743.743a3.575,3.575,0,0,0,5.047,0l4.936-4.936a3.575,3.575,0,0,0,0-5.048A.578.578,0,0,0,10.953,8.271Z" />
    <path d="M19.679,1.786l-.743-.743a3.575,3.575,0,0,0-5.048,0L8.952,5.979a3.575,3.575,0,0,0,0,5.047.58.58,0,1,0,.82-.82,2.412,2.412,0,0,1,0-3.408l4.936-4.936a2.412,2.412,0,0,1,3.408,0l.743.743a2.412,2.412,0,0,1,0,3.408l-4.936,4.936a.582.582,0,0,0,.408.991.565.565,0,0,0,.408-.172l4.936-4.936a3.57,3.57,0,0,0,0-5.047Z" />
  </g>
</svg>