<svg xmlns="http://www.w3.org/2000/svg" width="72" height="45" viewBox="0 0 71.916 44.925">
  <path
    fill="black"
    d="M7.594,5.25v5.284H18.2v5.25H7.594V24.018H0.8V0h18.837v5.25Zm30.4,14.1H27.838L25.951,24.018h-6.931L29.622,0h6.691L46.949,24.018H39.881ZM36,14.342l-3.088-7.686L29.828,14.342ZM71.893,0,61.6,24.018H54.909L44.65,0h7.343L58.512,15.646,65.168,0ZM15.234,28.593V44.6H11.506L4.438,36.072V44.6H0V28.593H3.728L10.8,37.125V28.593Zm11.277,16.332a9.577,9.577,0,0,1-4.563-1.075A8.015,8.015,0,0,1,17.613,36.6a8.015,8.015,0,0,1,4.335-7.251,9.577,9.577,0,0,1,4.563-1.075,9.577,9.577,0,0,1,4.563,1.075A8.015,8.015,0,0,1,35.409,36.6a8.015,8.015,0,0,1-4.335,7.251A9.577,9.577,0,0,1,26.511,44.925Zm0-3.751a4.289,4.289,0,0,0,2.2-.572,4.113,4.113,0,0,0,1.555-1.613,4.883,4.883,0,0,0,.572-2.39,4.883,4.883,0,0,0-.572-2.39A4.113,4.113,0,0,0,28.707,32.6a4.5,4.5,0,0,0-4.392,0,4.113,4.113,0,0,0-1.555,1.613,4.883,4.883,0,0,0-.572,2.39,4.883,4.883,0,0,0,.572,2.39A4.113,4.113,0,0,0,24.315,40.6,4.289,4.289,0,0,0,26.511,41.173Zm14.456-8.99H36.05V28.593H50.392v3.591H45.5V44.6H40.967ZM64.939,41.1v3.5H52.084V28.593H64.642v3.5H56.568v2.7h7.114v3.385H56.568V41.1Zm4.369,3.706a2.56,2.56,0,0,1-1.853-.732,2.471,2.471,0,0,1-.755-1.853,2.444,2.444,0,0,1,.743-1.853,2.82,2.82,0,0,1,3.74,0,2.464,2.464,0,0,1,.732,1.853,2.491,2.491,0,0,1-.743,1.853A2.549,2.549,0,0,1,69.308,44.81Z"
  />
</svg>