<svg xmlns="http://www.w3.org/2000/svg" width="52" height="42" viewBox="0 0 52 42">
  <g fill="black">
    <path d="M17.333,21.605,34.719,11.567a.881.881,0,0,0,0-1.526L17.333,0a.881.881,0,0,0-1.322.763v4.674H1a.882.882,0,0,0-.881.881V15.286A.882.882,0,0,0,1,16.167H16.011v4.674a.883.883,0,0,0,1.322.765Z" transform="translate(34.719 32.167) rotate(180)"/>
    <path d="M25.5,0H7.541a.882.882,0,0,0-.881.881V3.526a.882.882,0,0,0,.881.881H25.5a2.105,2.105,0,0,1,2.1,2.1V35.654a2.105,2.105,0,0,1-2.1,2.1H7.541a.882.882,0,0,0-.881.881v2.644a.882.882,0,0,0,.881.881H25.5a6.517,6.517,0,0,0,6.51-6.51V6.511A6.518,6.518,0,0,0,25.5,0Z" transform="translate(19.5 0)"/>
  </g>
</svg>