<svg xmlns="http://www.w3.org/2000/svg" width="41" height="33" viewBox="0 0 40.582 32.964">
  <path
    fill="#000000"
    d="M40.582,3.9a16.624,16.624,0,0,1-4.78,1.311,8.36,8.36,0,0,0,3.659-4.6,16.783,16.783,0,0,1-5.29,2.021,8.331,8.331,0,0,0-14.186,7.59A23.635,23.635,0,0,1,2.827,1.522a8.335,8.335,0,0,0,2.572,11.112A8.326,8.326,0,0,1,1.633,11.589v.1a8.333,8.333,0,0,0,6.677,8.17,8.433,8.433,0,0,1-2.194.292,7.99,7.99,0,0,1-1.567-.155,8.329,8.329,0,0,0,7.775,5.782A16.7,16.7,0,0,1,1.986,29.333,17.692,17.692,0,0,1,0,29.219a23.532,23.532,0,0,0,12.761,3.746c15.314,0,23.685-12.685,23.685-23.685l-.028-1.078A16.624,16.624,0,0,0,40.582,3.9Z"
  />
</svg>